<svg width="512" height="320" viewBox="0 0 512 320" fill="none" xmlns="http://www.w3.org/2000/svg">
  <defs>
    <linearGradient id="bg" x1="0" y1="0" x2="1" y2="1">
      <stop offset="0%" stop-color="#FFE7F1"/>
      <stop offset="100%" stop-color="#F9D6E7"/>
    </linearGradient>
  </defs>

  <rect x="12" y="12" width="488" height="296" rx="36" fill="url(#bg)"/>
  <rect x="146" y="32" width="220" height="256" rx="28" fill="#FFFFFF"/>
  <rect x="170" y="52" width="172" height="34" rx="10" fill="#FFF2F8"/>
  <text x="256" y="74" text-anchor="middle" font-family="Arial, sans-serif" font-size="16" fill="#8C456A">1-555-NETMAUI</text>

  <g font-family="Arial, sans-serif" text-anchor="middle">
    <g fill="#FDEAF2" stroke="#E8B8CD" stroke-width="1">
      <rect x="170" y="98" width="48" height="36" rx="10"/><rect x="232" y="98" width="48" height="36" rx="10"/><rect x="294" y="98" width="48" height="36" rx="10"/>
      <rect x="170" y="144" width="48" height="36" rx="10"/><rect x="232" y="144" width="48" height="36" rx="10"/><rect x="294" y="144" width="48" height="36" rx="10"/>
      <rect x="170" y="190" width="48" height="36" rx="10"/><rect x="232" y="190" width="48" height="36" rx="10"/><rect x="294" y="190" width="48" height="36" rx="10"/>
      <rect x="232" y="236" width="48" height="36" rx="10"/>
    </g>

    <g fill="#7A355A">
      <text x="194" y="120" font-size="15">2</text><text x="256" y="120" font-size="15">3</text><text x="318" y="120" font-size="15">4</text>
      <text x="194" y="166" font-size="15">5</text><text x="256" y="166" font-size="15">6</text><text x="318" y="166" font-size="15">7</text>
      <text x="194" y="212" font-size="15">8</text><text x="256" y="212" font-size="15">9</text><text x="318" y="212" font-size="15">0</text>
      <text x="256" y="258" font-size="15">CALL</text>
    </g>

    <g fill="#A25A80" font-size="9">
      <text x="194" y="130">ABC</text><text x="256" y="130">DEF</text><text x="318" y="130">GHI</text>
      <text x="194" y="176">JKL</text><text x="256" y="176">MNO</text><text x="318" y="176">PQRS</text>
      <text x="194" y="222">TUV</text><text x="256" y="222">WXYZ</text><text x="318" y="222">+ _</text>
    </g>
  </g>
</svg>
